<?xml version="1.0" encoding="UTF-8"?>
<svg width="48px" height="48px" viewBox="0 0 48 48" version="1.1" xmlns="http://www.w3.org/2000/svg" xmlns:xlink="http://www.w3.org/1999/xlink">
    <!-- Generator: Sketch 50.2 (55047) - http://www.bohemiancoding.com/sketch -->
    <title>f_asrama</title>
    <desc>Created with Sketch.</desc>
    <defs></defs>
    <g id="f_asrama" stroke="none" stroke-width="1" fill="none" fill-rule="evenodd">
        <path d="M40.0000392,24.0000059 C42.2060699,24.0000059 43.9999757,25.7939117 43.9999757,28.0000362 L43.9999757,46.999969 C43.9999757,47.5527189 43.5527883,48 43.0000384,48 L4.99998535,48 C4.44732923,48 4.00004809,47.5527189 4.00004809,46.999969 L4.00004809,28.0000362 C4.00004809,25.7939117 5.7939539,24.0000059 7.9999846,24.0000059 L13.9999831,24.0000059 L13.9999831,18.0000074 C13.9999831,15.7939767 15.7939827,13.9999772 18.0000134,13.9999772 L30.0000104,13.9999772 C32.2060411,13.9999772 34.0000407,15.7939767 34.0000407,18.0000074 L34.0000407,24.0000059 L40.0000392,24.0000059 Z M40.0000392,31.0000355 L40.0000392,28.9999735 C40.0000392,28.4473173 39.552758,28.0000362 39.0000082,28.0000362 L37.0000399,28.0000362 C36.4472901,28.0000362 36.0000089,28.4473173 36.0000089,28.9999735 L36.0000089,31.0000355 C36.0000089,31.5527853 36.4472901,31.9999727 37.0000399,31.9999727 L39.0000082,31.9999727 C39.552758,31.9999727 40.0000392,31.5527853 40.0000392,31.0000355 Z M40.0000392,37.000034 L40.0000392,34.999972 C40.0000392,34.4473159 39.552758,34.0000347 39.0000082,34.0000347 L37.0000399,34.0000347 C36.4472901,34.0000347 36.0000089,34.4473159 36.0000089,34.999972 L36.0000089,37.000034 C36.0000089,37.5527838 36.4472901,37.9999712 37.0000399,37.9999712 L39.0000082,37.9999712 C39.552758,37.9999712 40.0000392,37.5527838 40.0000392,37.000034 Z M40.0000392,43.0000325 L40.0000392,40.9999705 C40.0000392,40.4473144 39.552758,40.0000332 39.0000082,40.0000332 L37.0000399,40.0000332 C36.4472901,40.0000332 36.0000089,40.4473144 36.0000089,40.9999705 L36.0000089,43.0000325 C36.0000089,43.5527824 36.4472901,43.9999697 37.0000399,43.9999697 L39.0000082,43.9999697 C39.552758,43.9999697 40.0000392,43.5527824 40.0000392,43.0000325 Z M30.0000104,21.0000067 L30.0000104,19.0000384 C30.0000104,18.4472886 29.5527293,18.0000074 28.9999794,18.0000074 L25.9999801,18.0000074 C25.447324,18.0000074 25.0000429,18.4472886 25.0000429,19.0000384 L25.0000429,21.0000067 C25.0000429,21.5527565 25.447324,22.0000377 25.9999801,22.0000377 L28.9999794,22.0000377 C29.5527293,22.0000377 30.0000104,21.5527565 30.0000104,21.0000067 Z M30.0000104,27.0000052 L30.0000104,25.0000369 C30.0000104,24.4472871 29.5527293,24.0000059 28.9999794,24.0000059 L25.9999801,24.0000059 C25.447324,24.0000059 25.0000429,24.4472871 25.0000429,25.0000369 L25.0000429,27.0000052 C25.0000429,27.5527551 25.447324,28.0000362 25.9999801,28.0000362 L28.9999794,28.0000362 C29.5527293,28.0000362 30.0000104,27.5527551 30.0000104,27.0000052 Z M30.0000104,33.0000037 L30.0000104,31.0000355 C30.0000104,30.4472856 29.5527293,30.0000045 28.9999794,30.0000045 L25.9999801,30.0000045 C25.447324,30.0000045 25.0000429,30.4472856 25.0000429,31.0000355 L25.0000429,33.0000037 C25.0000429,33.5527536 25.447324,34.0000347 25.9999801,34.0000347 L28.9999794,34.0000347 C29.5527293,34.0000347 30.0000104,33.5527536 30.0000104,33.0000037 Z M28.0000421,45.0000007 L28.0000421,37.000034 C28.0000421,36.4472841 27.552761,36.000003 27.0000111,36.000003 L21.0000126,36.000003 C20.4472628,36.000003 19.9999816,36.4472841 19.9999816,37.000034 L19.9999816,45.0000007 C19.9999816,45.5527506 20.4472628,46.0000317 21.0000126,46.0000317 L27.0000111,46.0000317 C27.552761,46.0000317 28.0000421,45.5527506 28.0000421,45.0000007 Z M18.0000134,33.0000037 C18.0000134,33.5527536 18.4472945,34.0000347 19.0000444,34.0000347 L22.0000436,34.0000347 C22.5527935,34.0000347 22.9999809,33.5527536 22.9999809,33.0000037 L22.9999809,31.0000355 C22.9999809,30.4472856 22.5527935,30.0000045 22.0000436,30.0000045 L19.0000444,30.0000045 C18.4472945,30.0000045 18.0000134,30.4472856 18.0000134,31.0000355 L18.0000134,33.0000037 Z M18.0000134,25.0000369 L18.0000134,27.0000052 C18.0000134,27.5527551 18.4472945,28.0000362 19.0000444,28.0000362 L22.0000436,28.0000362 C22.5527935,28.0000362 22.9999809,27.5527551 22.9999809,27.0000052 L22.9999809,25.0000369 C22.9999809,24.4472871 22.5527935,24.0000059 22.0000436,24.0000059 L19.0000444,24.0000059 C18.4472945,24.0000059 18.0000134,24.4472871 18.0000134,25.0000369 Z M18.0000134,19.0000384 L18.0000134,21.0000067 C18.0000134,21.5527565 18.4472945,22.0000377 19.0000444,22.0000377 L22.0000436,22.0000377 C22.5527935,22.0000377 22.9999809,21.5527565 22.9999809,21.0000067 L22.9999809,19.0000384 C22.9999809,18.4472886 22.5527935,18.0000074 22.0000436,18.0000074 L19.0000444,18.0000074 C18.4472945,18.0000074 18.0000134,18.4472886 18.0000134,19.0000384 Z M12.0000149,31.0000355 L12.0000149,28.9999735 C12.0000149,28.4473173 11.5527337,28.0000362 10.9999839,28.0000362 L9.0000156,28.0000362 C8.44726574,28.0000362 7.9999846,28.4473173 7.9999846,28.9999735 L7.9999846,31.0000355 C7.9999846,31.5527853 8.44726574,31.9999727 9.0000156,31.9999727 L10.9999839,31.9999727 C11.5527337,31.9999727 12.0000149,31.5527853 12.0000149,31.0000355 Z M12.0000149,37.000034 L12.0000149,34.999972 C12.0000149,34.4473159 11.5527337,34.0000347 10.9999839,34.0000347 L9.0000156,34.0000347 C8.44726574,34.0000347 7.9999846,34.4473159 7.9999846,34.999972 L7.9999846,37.000034 C7.9999846,37.5527838 8.44726574,37.9999712 9.0000156,37.9999712 L10.9999839,37.9999712 C11.5527337,37.9999712 12.0000149,37.5527838 12.0000149,37.000034 Z M12.0000149,43.0000325 L12.0000149,40.9999705 C12.0000149,40.4473144 11.5527337,40.0000332 10.9999839,40.0000332 L9.0000156,40.0000332 C8.44726574,40.0000332 7.9999846,40.4473144 7.9999846,40.9999705 L7.9999846,43.0000325 C7.9999846,43.5527824 8.44726574,43.9999697 9.0000156,43.9999697 L10.9999839,43.9999697 C11.5527337,43.9999697 12.0000149,43.5527824 12.0000149,43.0000325 Z M10.0146716,8.40629105 L8.45607824,7.06932264 C8.06054709,6.72751022 7.90529713,6.18751035 8.05764084,5.69138548 C8.2128908,5.19047935 8.64845319,4.83104194 9.16895306,4.7773232 L11.1347963,4.55860451 L11.7753899,2.84860493 C12.1582648,1.83104268 13.8427644,1.83301143 14.2236706,2.84672993 L14.8652954,4.55860451 L16.8369512,4.7773232 C17.3515448,4.83104194 17.7871072,5.19047935 17.9423571,5.69138548 C18.0947009,6.18751035 17.9394509,6.72751022 17.5458885,7.06735389 L15.9853264,8.40629105 L16.4306388,10.4091656 C16.5488575,10.9287279 16.32817,11.4824153 15.8789202,11.7812902 C15.7148577,11.8906027 15.3515765,12.0000089 15.1543266,12.0000089 C14.9473266,12.0000089 14.565483,11.8788839 14.3965455,11.7587902 L13.0000459,10.7617592 L11.6064525,11.7568215 C11.437515,11.8779464 11.0547338,12.0000089 10.8457651,12.0000089 C10.5879527,12.0000089 10.338859,11.9248214 10.1250153,11.783259 C9.67192169,11.4824153 9.45123424,10.9287279 9.57132796,10.4033531 L10.0146716,8.40629105 Z M32.0146974,8.40629105 L30.456104,7.06932264 C30.0605729,6.72751022 29.9053229,6.18751035 30.0576666,5.69138548 C30.2129166,5.19047935 30.648479,4.83104194 31.1689789,4.7773232 L33.1348221,4.55860451 L33.7754157,2.84860493 C34.1581969,1.83104268 35.8427902,1.83301143 36.2236026,2.84672993 L36.8652275,4.55860451 L38.8368832,4.7773232 C39.3515706,4.83104194 39.787133,5.19047935 39.9423829,5.69138548 C40.0947267,6.18751035 39.9394767,6.72751022 39.5459143,7.06735389 L37.9853522,8.40629105 L38.4306646,10.4091656 C38.5488833,10.9287279 38.3281021,11.4824153 37.878946,11.7812902 C37.7148835,11.8906027 37.3516023,12.0000089 37.1543524,12.0000089 C36.9472587,12.0000089 36.565415,11.8788839 36.3964776,11.7587902 L34.9999779,10.7617592 L33.6064783,11.7568215 C33.4375408,11.8779464 33.0546659,12.0000089 32.8456972,12.0000089 C32.5878848,12.0000089 32.3388848,11.9248214 32.1250411,11.783259 C31.6718537,11.4824153 31.4511663,10.9287279 31.57126,10.4033531 L32.0146974,8.40629105 Z M4.90529787,11.7711652 L4.00089184,11.1190404 L3.10032957,11.7681652 C2.93045461,11.8905089 2.59342344,12.0000089 2.38539224,12.0000089 C2.1461423,12.0000089 1.91364236,11.9299777 1.71245491,11.7987277 C1.28373627,11.5096965 1.07467382,10.9858217 1.18314254,10.4886655 L1.48492372,9.11635338 L0.430048977,8.20285361 C0.0617990681,7.88719743 -0.0885758947,7.37513506 0.0520490705,6.90066643 C0.201486534,6.42122905 0.606861433,6.08185413 1.08836131,6.02457289 L2.42157973,5.87560418 L2.84832963,4.72538572 C3.21367329,3.75657346 4.79007915,3.76154221 5.15139156,4.72041697 L5.58020395,5.87560418 L6.90657862,6.02363539 C7.39492225,6.08185413 7.8002034,6.42122905 7.94579712,6.88782268 C8.09035958,7.37513506 7.93989087,7.88719743 7.56685971,8.2067911 L6.51685997,9.11635338 L6.81864114,10.4876343 C6.92710987,10.9858217 6.71804742,11.5096965 6.29907877,11.791884 C6.13492256,11.9023214 5.81364139,12.0000089 5.61629769,12.0000089 C5.40929774,12.0000089 5.07423533,11.8914464 4.90529787,11.7711652 Z M47.9457247,6.88782268 C48.0902872,7.37513506 47.9399122,7.88719743 47.5667873,8.2067911 L46.5168813,9.11635338 L46.8186625,10.4876343 C46.9270375,10.9858217 46.7180688,11.5096965 46.2990064,11.791884 C46.1349439,11.9023214 45.8136627,12.0000089 45.616319,12.0000089 C45.4092253,12.0000089 45.0742567,11.8914464 44.9053192,11.7711652 L44.0008194,11.1190404 L43.1003509,11.7681652 C42.9303822,11.8905089 42.5934448,12.0000089 42.3854136,12.0000089 C42.1460699,12.0000089 41.9136637,11.9299777 41.7124763,11.7987277 C41.2836639,11.5096965 41.0746952,10.9858217 41.1830701,10.4886655 L41.4848513,9.11635338 L40.4300703,8.20285361 C40.0618204,7.88719743 39.9114454,7.37513506 40.0520704,6.90066643 C40.2015079,6.42122905 40.606789,6.08185413 41.0883827,6.02457289 L42.4215073,5.87560418 L42.848351,4.72538572 C43.2136009,3.75657346 44.7900067,3.76154221 45.1514129,4.72041697 L45.5802253,5.87560418 L46.9065062,6.02363539 C47.3949436,6.08185413 47.8002247,6.42122905 47.9457247,6.88782268 Z M20.5458877,7.6321975 L18.4844195,5.85019794 C18.0654509,5.48907303 17.8994197,4.91251067 18.0615134,4.3820733 C18.2246383,3.84882343 18.6845757,3.46604228 19.2324506,3.40501104 L21.8486374,3.11279237 L22.704106,0.813292935 C23.1122934,-0.273081796 24.8886679,-0.268113047 25.2959178,0.810292936 L26.1523239,3.11279237 L28.7686045,3.40501104 C29.3125418,3.46510478 29.7715417,3.84582343 29.9374792,4.37429205 C30.1015416,4.91251067 29.9356042,5.48907303 29.5166355,5.85019794 L27.4550735,7.6321975 L28.0449484,10.3026656 C28.1670109,10.8625404 27.9316984,11.4499778 27.4599485,11.7668527 C27.2246361,11.9212589 26.9619487,12.0000089 26.6924175,12.0000089 C26.4043238,12.0000089 26.1279489,11.9114152 25.8916052,11.7441652 L24.0000119,10.3823531 L22.1132936,11.7402277 C21.6367625,12.0757589 21.0166064,12.0777276 20.5498252,11.772759 C20.0664504,11.4509153 19.8310442,10.8596342 19.9570441,10.2987281 L20.5458877,7.6321975 Z" id="Combined-Shape" fill="#435764"></path>
    </g>
</svg>