<?xml version="1.0" encoding="UTF-8"?>
<svg width="48px" height="48px" viewBox="0 0 48 48" version="1.1" xmlns="http://www.w3.org/2000/svg" xmlns:xlink="http://www.w3.org/1999/xlink">
    <!-- Generator: Sketch 50.2 (55047) - http://www.bohemiancoding.com/sketch -->
    <title>f_laundry</title>
    <desc>Created with Sketch.</desc>
    <defs></defs>
    <g id="f_laundry" stroke="none" stroke-width="1" fill="none" fill-rule="evenodd">
        <path d="M39.4360285,0 L8.38929594,0 C5.41250655,0 3,2.41299248 3,5.39026779 L3,42.6097322 C3,45.5870075 5.41250655,48 8.38929594,48 L39.4360285,48 C42.4136682,48 44.8262962,45.5870075 44.8262962,42.6097322 L44.8262962,5.39026779 C44.8262962,2.41299248 42.4136682,0 39.4360285,0 Z M34.5297441,3.4186186 C35.9187667,3.4186186 37.0438094,4.54414724 37.0438094,5.93219798 C37.0438094,7.32024873 35.9187667,8.44577737 34.5297441,8.44577737 C33.1412074,8.44577737 32.0165291,7.32024873 32.0165291,5.93219798 C32.0165291,4.54414724 33.1412074,3.4186186 34.5297441,3.4186186 Z M26.4863143,3.4186186 C27.8753369,3.4186186 29.0003796,4.54414724 29.0003796,5.93219798 C29.0003796,7.32024873 27.8753369,8.44577737 26.4863143,8.44577737 C25.0977776,8.44577737 23.9732209,7.32024873 23.9732209,5.93219798 C23.9732209,4.54414724 25.0977776,3.4186186 26.4863143,3.4186186 Z M23.9128444,42.3705346 C16.9437995,42.3705346 11.294897,36.7216321 11.294897,29.7525872 C11.294897,22.7835423 16.9437995,17.1341538 23.9128444,17.1341538 C30.880553,17.1341538 36.5313992,22.7835423 36.5313992,29.7525872 C36.5313992,36.7216321 30.880553,42.3705346 23.9128444,42.3705346 Z M38.3335814,13.8750408 L9.49453712,13.8750408 C8.6048046,13.8750408 7.88538954,13.1546539 7.88538954,12.2663792 C7.88538954,11.3779829 8.6048046,10.657596 9.49453712,10.657596 L38.3332169,10.657596 C39.2224635,10.657596 39.9418786,11.3779829 39.9418786,12.2663792 C39.9418786,13.1546539 39.2224635,13.8750408 38.3335814,13.8750408 Z M23.9128444,20.6329504 C28.9420684,20.6329504 33.0326027,24.7239706 33.0326027,29.7525872 C33.0326027,34.7813252 28.9420684,38.872224 23.9128444,38.872224 C18.8842279,38.872224 14.7936936,34.7813252 14.7936936,29.7525872 C14.7936936,24.7239706 18.8842279,20.6329504 23.9128444,20.6329504 Z M23.9128444,23.448412 C20.4359146,23.448412 17.6086692,26.2766292 17.6086692,29.7525872 C17.6086692,29.9310439 17.6460856,30.0985673 17.6599346,30.2726507 C18.7371134,30.3923102 19.7075099,30.8829751 21.0979902,31.6531695 C22.0194295,32.1627856 23.3135748,32.4289521 24.3541877,32.273334 C26.3966608,31.9696296 27.9478615,31.8884797 29.6899102,32.2614288 C30.0254428,31.4917203 30.217627,30.6452353 30.217627,29.7525872 C30.217627,26.2766292 27.3894098,23.448412 23.9128444,23.448412 Z" id="Combined-Shape" fill="#435764"></path>
    </g>
</svg>