<?xml version="1.0" encoding="UTF-8"?>
<svg width="48px" height="48px" viewBox="0 0 48 48" version="1.1" xmlns="http://www.w3.org/2000/svg" xmlns:xlink="http://www.w3.org/1999/xlink">
    <!-- Generator: Sketch 50.2 (55047) - http://www.bohemiancoding.com/sketch -->
    <title>f_km</title>
    <desc>Created with Sketch.</desc>
    <defs></defs>
    <g id="f_km" stroke="none" stroke-width="1" fill="none" fill-rule="evenodd">
        <path d="M39.7070094,10.2929943 C40.0975714,10.6835562 40.0975714,11.3163679 39.7070094,11.7070236 L21.7070335,29.7069996 C21.5195337,29.8944993 21.2655653,29.9999679 20.9999719,29.9999679 C20.7343785,29.9999679 20.4804101,29.8944993 20.2929104,29.7069996 L19.5019427,28.9150006 C18.9902559,28.4042513 18.7090062,27.7236272 18.7090062,26.9999719 C18.7090062,26.5960037 18.8155061,26.215473 18.9820059,25.8601609 C15.8471038,22.2598845 15.1389173,17.1357039 17.2148207,12.8232096 C16.1406347,12.2821791 14.9570425,11.999992 13.7460754,11.999992 C9.47464358,11.999992 5.99999198,15.4746436 5.99999198,19.7460754 L5.99999198,40.999922 C5.99999198,41.5526712 5.55271133,41.9999519 4.99996206,41.9999519 L1.00002991,41.9999519 C0.447280652,41.9999519 0,41.5526712 0,40.999922 L0,19.7460754 C0,12.166023 6.16602301,6 13.7460754,6 C16.3945093,6 18.9609121,6.75590524 21.1855029,8.18746583 C25.6954344,5.04637628 31.7403326,5.4054383 35.8561396,8.989871 C36.8607632,8.51840288 38.0852303,8.67243393 38.915948,9.49996407 L39.7070094,10.2929943 Z M29.9491475,26.6835661 L31.9492073,32.6835581 C32.1230195,33.2079949 31.8398012,33.7743379 31.3163956,33.9482439 C31.210927,33.9834001 31.1054584,33.9999938 30.9999898,33.9999938 C30.5819591,33.9999938 30.1913971,33.7353379 30.0507723,33.3163697 L28.0507125,27.3163777 C27.8769002,26.7919409 28.1601186,26.225598 28.6835241,26.0516919 C29.2108672,25.8789109 29.7733664,26.1591293 29.9491475,26.6835661 Z M36.9999818,28.0000018 C36.7441384,28.0000018 36.4882012,27.9023145 36.2929202,27.7070335 L32.2928943,23.7070076 C31.9023323,23.3163518 31.9023323,22.6835402 32.2928943,22.2929782 C32.68355,21.9023225 33.3163617,21.9023225 33.7070174,22.2929782 L37.7069496,26.2929104 C38.0976053,26.6835661 38.0976053,27.3163777 37.7069496,27.7070335 C37.5116686,27.9023145 37.2558252,28.0000018 36.9999818,28.0000018 Z M36.0507643,18.683608 C36.2285141,18.1601087 36.7968258,17.8788591 37.3163876,18.0517339 L43.3163796,20.0517 C43.8397851,20.225606 44.1230035,20.791949 43.9491912,21.3163858 C43.8085664,21.735354 43.4179107,22.0000099 42.9999738,22.0000099 C42.8945051,22.0000099 42.7890365,21.9834161 42.6835679,21.9482599 L36.6835759,19.9482001 C36.1600766,19.7743878 35.876952,19.2079511 36.0507643,18.683608 Z M35.8319521,30.4452798 L39.831978,36.4452718 C40.1386338,36.9052087 40.0136652,37.5253641 39.5546659,37.8320199 C39.3846973,37.9452698 39.1913851,37.999926 38.9999479,37.999926 C38.6777295,37.999926 38.3613237,37.8437387 38.1679177,37.5546141 L34.1678918,31.5546221 C33.8613297,31.0946852 33.9862983,30.4746235 34.4452977,30.1679677 C34.9003596,29.8613118 35.5234213,29.9853429 35.8319521,30.4452798 Z M47.5546239,28.1679079 C48.0136233,28.4745637 48.1385919,29.0947191 47.831936,29.554656 C47.6386238,29.8436869 47.322218,29.9999679 46.9999059,29.9999679 C46.8085624,29.9999679 46.6151564,29.9453117 46.4452816,29.8319681 L40.4452897,25.832036 C39.9862903,25.5253801 39.8613217,24.9052247 40.1678838,24.4452878 C40.4765084,23.9843197 41.09957,23.8642261 41.5546319,24.1679757 L47.5546239,28.1679079 Z" id="Combined-Shape" fill="#435764"></path>
    </g>
</svg>