<?xml version="1.0" encoding="UTF-8"?>
<svg width="48px" height="48px" viewBox="0 0 48 48" version="1.1" xmlns="http://www.w3.org/2000/svg" xmlns:xlink="http://www.w3.org/1999/xlink">
    <!-- Generator: Sketch 50.2 (55047) - http://www.bohemiancoding.com/sketch -->
    <title>f_katering</title>
    <desc>Created with Sketch.</desc>
    <defs></defs>
    <g id="f_katering" stroke="none" stroke-width="1" fill="none" fill-rule="evenodd">
        <path d="M16.2887274,24.1757675 L13.4389501,24.1757675 C13.4089524,23.7370518 13.388329,23.2983361 13.388329,22.8577455 C13.388329,14.4134052 19.5472229,7.45582376 27.4628545,6.53339583 C26.9510195,6.05718303 26.6285446,5.3766112 26.6285446,4.62292008 C26.6285446,3.17178345 27.8003281,2 29.2514647,2 C30.7007265,2 31.87251,3.17178345 31.87251,4.62292008 C31.87251,5.3766112 31.5425357,6.05718303 31.0382001,6.53339583 C38.9538317,7.45582376 45.107101,14.4134052 45.107101,22.8577455 C45.107101,23.3039606 45.0846028,23.7445512 45.0546051,24.1832669 C35.0297633,24.1832669 27.8584486,24.1832669 18.6022967,24.1757675 C18.6454183,23.7520506 18.675416,23.3264589 18.7410359,22.902742 C18.8366534,21.7384579 19.0560112,20.6022967 19.2753691,19.4886337 C19.4291071,18.9543004 19.5622217,18.4124678 19.685962,17.8706351 C19.8696977,17.3588001 20.0440591,16.8450902 20.2127959,16.3407546 C20.6383876,15.3808296 21.0489805,14.428404 21.5983126,13.622217 C21.722053,13.4103586 21.8457933,13.2059995 21.9714085,12.9997656 C22.1176471,12.8104054 22.2638856,12.6266698 22.4101242,12.4504336 C22.7026014,12.0923365 22.9369581,11.7042419 23.2519334,11.3967659 C23.8668854,10.7968127 24.3880947,10.166862 24.9580502,9.72627139 C25.5148816,9.26505742 25.9760956,8.81134286 26.4091868,8.52636513 C27.2584954,7.90391376 27.7422076,7.52331849 27.7422076,7.52331849 C27.7422076,7.52331849 27.1703773,7.72767753 26.1748301,8.12327162 C25.6629951,8.30513241 25.0986642,8.62760722 24.4387157,8.99507851 C23.7581439,9.32317788 23.0831966,9.85938599 22.3220061,10.421842 C21.9414108,10.6936958 21.6114366,11.0667917 21.2308413,11.4117647 C21.0489805,11.5936255 20.8652449,11.7773611 20.6740098,11.9610968 C20.5127724,12.1729552 20.3459105,12.3848137 20.1771737,12.598547 C19.4591048,13.4403562 18.8647762,14.4434029 18.3304429,15.5120694 C18.0960862,16.0614015 17.8617296,16.6257324 17.6198734,17.1900633 C17.4305132,17.7675182 17.2467776,18.3618467 17.0780408,18.9617999 C16.8080619,20.163581 16.5437075,21.4009843 16.4199672,22.6308882 C16.3543473,23.1502226 16.3168502,23.6639325 16.2887274,24.1757675 Z M10.5029295,28.4616827 L10.5029295,25.1506914 L48,25.1506914 L48,28.4616827 L10.5029295,28.4616827 Z M32.6055777,30.8108742 C34.5160534,29.8809468 35.314741,32.1588938 34.3266932,32.8188423 C33.34427,33.4769159 25.0986642,39.1164753 23.7431451,39.3808296 C22.3951254,39.6433091 12.428404,39.3808296 11.2791188,39.3808296 C10.1279588,39.3808296 8.98617296,41.3494258 8.98617296,41.3494258 L7.50691352,31.9976564 L13.0864776,29.9915632 C13.0864776,29.9915632 21.4951957,29.6390907 22.4551207,29.6390907 C23.4206703,29.6390907 24.1818608,31.6095618 22.4326225,31.9976564 C20.6965081,32.3932505 16.2006093,33.6381533 16.2006093,33.6381533 L24.0581205,34.1293649 C24.0581205,34.1293649 30.7007265,31.7351769 32.6055777,30.8108742 Z M0,33.0007031 L6.41574877,31.8739161 L8.55308179,43.5261308 L0,45.1216311 L0,33.0007031 Z" id="Combined-Shape" fill="#435764"></path>
    </g>
</svg>