<?xml version="1.0" encoding="UTF-8"?>
<svg width="48px" height="48px" viewBox="0 0 48 48" version="1.1" xmlns="http://www.w3.org/2000/svg" xmlns:xlink="http://www.w3.org/1999/xlink">
    <!-- Generator: Sketch 50.2 (55047) - http://www.bohemiancoding.com/sketch -->
    <title>f_masjid</title>
    <desc>Created with Sketch.</desc>
    <defs></defs>
    <g id="f_masjid" stroke="none" stroke-width="1" fill="none" fill-rule="evenodd">
        <path d="M23.9915314,0 C24.4412138,0.0110091743 24.8038814,0.371771348 24.8172195,0.821453776 L24.8172195,2.58292167 C33.8147848,2.98031052 41.0601976,10.1068454 41.6062103,19.0966831 L6.37685251,19.0966831 C6.92286521,10.1068454 14.1682781,2.98031052 23.1658433,2.58292167 L23.1658433,0.825688073 C23.1769584,0.374417784 23.5402611,0.0111150318 23.9915314,0 Z M44.8073394,20.3796754 L44.8242766,20.388144 C46.5762174,20.3928017 47.9953423,21.8119266 48,23.5638673 L48,47.1489061 C48,47.6165843 47.6208186,47.9957657 47.1531404,47.9957657 L0.846859562,47.9957657 C0.379181369,47.9957657 0,47.6165843 0,47.1489061 L0,23.5638673 C0,21.8085392 1.42050106,20.3843331 3.17572336,20.3796754 L44.8073394,20.3796754 Z M32.8073394,29.3775582 L36.9188426,29.3775582 L36.9188426,25.2575865 L32.8073394,25.2575865 L32.8073394,29.3775582 Z M34.0395201,46.3147495 L34.0352858,43.7741708 C34.0352858,38.2271348 29.5385674,33.7304164 23.9915314,33.7304164 C18.4444954,33.7304164 13.947777,38.2271348 13.947777,43.7741708 L13.947777,46.3147495 L34.0395201,46.3147495 Z M11.0684545,29.3690896 L15.1799577,29.3690896 L15.1799577,25.2575865 L11.0684545,25.2575865 L11.0684545,29.3690896 Z M18.3091037,29.3690896 L22.4206069,29.3690896 L22.4206069,25.2575865 L18.3091037,25.2575865 L18.3091037,29.3690896 Z M25.5624559,29.3690896 L29.6739591,29.3690896 L29.6739591,25.2575865 L25.5624559,25.2575865 L25.5624559,29.3690896 Z" id="Combined-Shape" fill="#435764"></path>
    </g>
</svg>