<?xml version="1.0" encoding="UTF-8"?>
<svg width="48px" height="48px" viewBox="0 0 48 48" version="1.1" xmlns="http://www.w3.org/2000/svg" xmlns:xlink="http://www.w3.org/1999/xlink">
    <!-- Generator: Sketch 50.2 (55047) - http://www.bohemiancoding.com/sketch -->
    <title>f_kantin</title>
    <desc>Created with Sketch.</desc>
    <defs></defs>
    <g id="f_kantin" stroke="none" stroke-width="1" fill="none" fill-rule="evenodd">
        <path d="M2.99731679,23.9995352 C3.96690265,23.9995352 4.91621556,23.5307966 5.49616244,22.6632785 L6.14067806,21.6965051 C6.46293587,23.0061608 7.59083821,23.9995352 8.99986654,23.9995352 C10.6582638,23.9995352 11.999911,22.6574193 11.999911,20.9993736 C11.999911,22.657888 13.3416753,23.9995352 15.0000726,23.9995352 C16.6580011,23.9995352 17.9997655,22.6574193 17.9997655,20.9993736 C17.9997655,22.657888 19.3414126,23.9995352 20.9998099,23.9995352 C22.6578556,23.9995352 23.9995028,22.6574193 23.9995028,20.9993736 C23.9995028,22.657888 25.3416187,23.9995352 26.9995472,23.9995352 C28.657593,23.9995352 29.9997089,22.6574193 29.9997089,20.9993736 C29.9997089,22.657888 31.341356,23.9995352 32.9994017,23.9995352 C34.6573303,23.9995352 35.9994462,22.6574193 35.9994462,20.9993736 C35.9994462,22.657888 37.3410933,23.9995352 38.9991391,23.9995352 C40.4113314,23.9995352 41.5364213,23.0061608 41.8586791,21.6965051 L42.5031947,22.6632785 C43.0804463,23.5307966 44.0325717,23.9995352 45.0020404,23.9995352 C45.5733156,23.9995352 46.1505672,23.8351251 46.6632501,23.495524 C48.0429822,22.57539 48.4150435,20.7123883 47.4950268,19.3354686 L41.9991835,11.9994746 L29.9997089,11.9994746 L29.9997089,8.99989894 L32.9994017,8.99989894 C34.657799,8.99989894 35.9994462,7.65778305 35.9994462,5.99973732 L35.9994462,3.00016162 C35.9994462,1.34164715 34.6573303,0 32.9994017,0 L15.0000726,0 C13.3416753,0 11.999911,1.34164715 11.999911,3.00016162 L11.999911,5.99973732 C11.999911,7.65825179 13.3416753,8.99989894 15.0000726,8.99989894 L17.9997655,8.99989894 L17.9997655,11.9994746 L6.00017365,11.9994746 L0.503978812,19.3354686 C-0.415686386,20.7123883 -0.0408126643,22.5758588 1.33610707,23.495524 C1.8460947,23.8351251 2.42604158,23.9995352 2.99731679,23.9995352 Z M20.9998099,11.9994746 L26.9995472,11.9994746 L26.9995472,8.99989894 L20.9998099,8.99989894 L20.9998099,11.9994746 Z M47.999038,47.9990704 L0.000436335451,47.9990704 C0.000436335451,45.5142869 2.01589527,43.498828 4.50009284,43.498828 L43.4992643,43.498828 C45.9834619,43.498828 47.999038,45.5142869 47.999038,47.9990704 Z M8.99986654,25.499616 L6.00017365,25.499616 L6.00017365,41.9987472 L41.9991835,41.9987472 L41.9991835,25.499616 L8.99986654,25.499616 Z M8.99986654,38.9991715 L17.9997655,38.9991715 L17.9997655,28.4991917 L8.99986654,28.4991917 L8.99986654,38.9991715 Z M20.9998099,38.9991715 L38.9991391,38.9991715 L38.9991391,28.4991917 L20.9998099,28.4991917 L20.9998099,38.9991715 Z M13.4999918,32.9994341 C13.4999918,33.8283984 12.8289924,34.498929 11.999911,34.498929 C11.1709467,34.498929 10.4999473,33.8283984 10.4999473,32.9994341 C10.4999473,32.1698839 11.1709467,31.4993533 11.999911,31.4993533 C12.8289924,31.4993533 13.4999918,32.1698839 13.4999918,32.9994341 Z" id="Fill-1" fill="#435764"></path>
    </g>
</svg>