<?xml version="1.0" standalone="no"?>
<!DOCTYPE svg PUBLIC "-//W3C//DTD SVG 20010904//EN"
 "http://www.w3.org/TR/2001/REC-SVG-20010904/DTD/svg10.dtd">
<svg version="1.0" xmlns="http://www.w3.org/2000/svg"
 width="1024.000000pt" height="1024.000000pt" viewBox="0 0 1024.000000 1024.000000"
 preserveAspectRatio="xMidYMid meet">

<g transform="translate(0.000000,1024.000000) scale(0.100000,-0.100000)"
fill="#000000" stroke="none">
<path d="M2550 9963 c-195 -179 -294 -270 -525 -478 -126 -115 -351 -319 -500
-454 -148 -135 -309 -281 -358 -325 -48 -43 -87 -83 -87 -88 0 -5 50 -103 112
-216 312 -577 484 -1008 550 -1372 17 -98 17 -590 -1 -755 -54 -511 -129 -815
-450 -1820 -122 -385 -169 -572 -213 -860 -19 -129 -22 -187 -22 -420 0 -284
15 -421 64 -616 116 -455 398 -920 804 -1325 373 -371 680 -558 1156 -702 424
-128 672 -167 1177 -182 191 -6 355 -16 411 -25 110 -18 260 -64 359 -111 40
-19 82 -34 93 -34 12 0 47 12 78 26 65 30 202 78 282 99 96 25 218 35 536 45
428 13 600 36 934 121 460 116 783 264 1060 483 396 313 717 702 924 1117 188
377 256 669 256 1102 0 426 -56 707 -288 1437 -229 720 -293 961 -351 1307
-48 287 -63 468 -64 758 -1 327 17 445 115 745 84 257 343 806 545 1156 l23
42 -252 229 c-322 293 -1002 910 -1182 1073 -76 69 -143 126 -150 128 -7 2
-59 -15 -116 -38 -160 -64 -503 -176 -640 -209 -604 -146 -1064 -98 -1608 168
l-104 50 -86 -43 c-545 -273 -1036 -322 -1652 -165 -135 35 -451 139 -600 199
-58 23 -109 44 -115 46 -5 2 -57 -40 -115 -93z m503 -163 c343 -116 616 -169
914 -177 374 -11 674 55 1052 228 46 22 92 39 101 39 9 0 57 -19 106 -41 469
-217 896 -279 1379 -200 254 42 577 134 846 241 55 22 104 40 109 40 8 0 149
-127 940 -845 145 -132 323 -293 395 -358 71 -65 131 -124 133 -131 1 -6 -21
-54 -49 -106 -159 -292 -363 -725 -429 -907 -13 -35 -26 -63 -29 -63 -4 0 -25
18 -46 40 -39 40 -39 40 -26 77 33 92 189 429 305 662 70 139 126 261 124 270
-3 19 4 13 -748 691 -294 266 -547 494 -561 507 l-27 25 -138 -55 c-248 -97
-455 -158 -689 -204 -130 -25 -159 -27 -400 -27 -290 -1 -342 5 -610 74 -161
42 -461 138 -532 172 l-43 20 -103 -45 c-749 -333 -1308 -337 -2150 -15 -142
55 -159 59 -175 46 -9 -9 -150 -134 -312 -278 -162 -145 -451 -402 -642 -572
-192 -170 -348 -311 -348 -313 0 -2 49 -104 109 -227 133 -274 284 -616 315
-713 5 -16 -6 -33 -49 -75 -30 -29 -56 -52 -58 -49 -3 2 -33 76 -68 164 -65
164 -253 554 -374 774 -44 81 -64 129 -59 137 5 7 308 283 674 615 366 331
693 628 727 660 l62 57 98 -39 c54 -22 178 -67 276 -99z m365 -639 c29 12 55
19 58 16 3 -3 -8 -26 -25 -51 -17 -24 -31 -48 -31 -51 0 -4 18 -29 41 -56 22
-27 37 -49 32 -49 -4 0 -33 7 -63 15 -30 8 -56 15 -57 15 -2 0 -20 -25 -40
-57 l-38 -56 -6 29 c-4 16 -7 46 -8 66 -1 35 -3 38 -43 48 -24 6 -52 15 -63
19 -19 8 -19 9 5 19 14 5 41 16 61 25 l37 15 -5 69 -5 68 48 -53 49 -53 53 22z
m3618 -86 c30 -10 57 -22 60 -26 2 -4 -24 -14 -58 -21 l-63 -14 -5 -70 -5 -69
-39 58 c-21 31 -42 57 -45 57 -3 0 -31 -7 -61 -15 -30 -8 -56 -12 -58 -10 -2
2 12 24 32 48 20 24 36 48 36 54 0 5 -14 31 -31 57 -16 27 -29 50 -27 51 2 2
29 -7 61 -20 l58 -24 32 36 c18 19 37 43 42 52 7 12 11 -3 13 -55 l3 -70 55
-19z m-1556 -56 c386 -30 866 -132 1295 -274 447 -148 811 -328 1104 -547 93
-70 311 -278 311 -297 0 -26 -422 -669 -450 -686 -5 -3 -53 23 -107 58 -360
234 -756 431 -1098 546 -671 226 -1487 279 -2245 145 -398 -70 -763 -194
-1151 -390 -81 -41 -150 -74 -154 -74 -3 0 -108 -61 -232 -135 -123 -74 -229
-133 -234 -130 -8 5 -450 639 -457 657 -6 13 98 126 188 205 458 404 1273 734
2161 877 383 62 691 75 1069 45z m-3326 -360 l26 -31 55 23 c30 12 57 20 61
16 3 -3 -8 -26 -25 -51 -17 -24 -31 -48 -31 -52 0 -4 18 -29 41 -56 22 -26 37
-48 32 -48 -4 0 -34 6 -65 14 -65 15 -64 15 -108 -59 -24 -38 -24 -39 -31 -15
-4 14 -7 44 -8 67 -1 40 -3 43 -38 52 -21 5 -47 11 -57 13 -33 5 -20 21 33 41
l51 20 0 71 c1 71 1 71 19 49 10 -12 31 -37 45 -54z m5897 -8 l-2 -58 50 -21
c27 -12 54 -22 60 -22 6 0 11 -4 11 -8 0 -5 -28 -15 -62 -23 l-63 -14 -3 -63
c-2 -34 -6 -62 -10 -62 -4 0 -21 23 -37 51 -33 55 -27 54 -135 33 l-35 -7 43
51 43 51 -36 53 c-19 29 -31 54 -27 56 5 1 30 -7 56 -18 26 -11 53 -20 59 -19
7 0 28 20 47 43 19 24 37 42 39 40 3 -2 3 -30 2 -63z m-5772 -1191 c118 -171
220 -309 225 -307 6 3 109 64 229 136 120 72 222 129 225 127 11 -6 86 -165
81 -169 -58 -52 -962 -767 -965 -764 -3 3 0 148 5 323 6 176 11 346 11 380 l0
61 -161 124 -161 124 142 138 c77 75 144 137 148 137 4 0 103 -140 221 -310z
m6065 153 l137 -131 -158 -124 -158 -125 3 -309 c1 -170 5 -342 8 -383 5 -64
4 -73 -9 -68 -26 10 -957 756 -957 767 0 19 75 160 85 160 6 0 111 -61 233
-135 l222 -134 38 52 c21 29 118 168 216 310 99 143 184 257 191 255 7 -2 74
-62 149 -135z m-3304 -493 l0 -400 -395 0 c-239 0 -395 4 -395 9 0 8 779 790
788 791 1 0 2 -180 2 -400z m544 1 c218 -217 396 -396 396 -398 0 -2 -180 -3
-400 -3 l-400 0 0 402 c0 221 2 399 4 397 3 -2 183 -182 400 -398z m-3717 231
l82 -63 21 -92 c39 -164 62 -354 56 -447 -3 -47 -6 -161 -7 -255 -3 -507 -93
-927 -414 -1930 -207 -645 -265 -950 -265 -1393 0 -415 50 -662 191 -944 98
-198 205 -357 362 -540 52 -61 77 -99 82 -125 23 -126 129 -229 271 -264 35
-9 74 -33 139 -85 411 -329 777 -472 1433 -558 241 -32 275 -35 595 -46 198
-7 294 -15 364 -30 164 -34 316 -88 327 -116 6 -16 46 -19 46 -3 0 18 125 68
248 100 123 32 196 38 642 59 342 15 716 73 999 155 335 96 537 202 819 429
82 65 132 98 162 106 135 36 223 121 261 250 8 29 35 71 76 118 215 248 385
533 468 784 19 59 47 173 62 255 25 138 27 167 27 448 0 278 -2 313 -27 474
-46 294 -95 487 -236 931 -293 918 -366 1230 -412 1746 -6 78 -9 234 -7 380 5
259 17 350 69 526 19 64 23 69 97 127 42 33 80 61 83 61 3 0 -6 -42 -22 -93
-68 -232 -74 -281 -74 -642 0 -209 5 -374 13 -450 50 -447 168 -928 402 -1640
290 -883 348 -1365 234 -1935 -111 -550 -541 -1187 -1089 -1613 -290 -225
-586 -357 -1085 -481 -285 -71 -595 -106 -956 -106 -281 0 -456 -30 -670 -115
l-111 -45 -99 41 c-236 96 -334 111 -864 129 -396 13 -597 43 -939 140 -532
151 -819 314 -1190 675 -270 263 -476 538 -622 828 -180 358 -251 661 -251
1072 0 421 63 726 302 1465 117 361 137 429 200 662 148 544 202 909 204 1373
1 314 -9 393 -79 634 -19 68 -35 125 -35 127 0 6 15 -5 117 -84z m3173 -792
l0 -100 -332 2 -333 3 -3 98 -3 97 336 0 335 0 0 -100z m815 0 l0 -95 -337 -3
-338 -2 0 100 0 100 338 -2 337 -3 0 -95z m-815 -344 l0 -204 -522 -7 c-288
-4 -534 -6 -547 -4 -21 4 1 30 179 212 l202 207 344 0 344 0 0 -204z m1029 -3
c111 -113 201 -210 201 -215 0 -5 -66 -7 -157 -4 -87 4 -332 9 -545 12 l-388
6 0 204 0 204 344 0 344 0 201 -207z m1714 26 l62 0 -29 -22 c-76 -58 -71 -48
-53 -102 10 -27 17 -52 17 -57 0 -4 -22 8 -48 27 l-48 34 -52 -35 c-29 -19
-52 -33 -52 -31 0 3 7 24 15 47 21 60 20 65 -25 97 -22 15 -40 31 -40 35 0 4
25 8 57 10 56 3 56 3 70 43 7 22 16 47 19 55 4 9 14 -7 26 -42 l20 -58 61 -1z
m-5192 34 l15 -48 54 -3 c30 -2 59 -7 63 -11 5 -5 -12 -21 -37 -37 -25 -16
-46 -34 -46 -40 0 -6 7 -31 15 -54 8 -24 13 -45 11 -48 -3 -2 -25 11 -50 29
l-46 32 -46 -32 c-25 -18 -47 -31 -50 -29 -2 3 3 24 11 48 8 23 15 48 15 54 0
6 -21 24 -46 40 -25 16 -42 32 -37 37 4 4 33 9 63 11 l54 3 15 48 c8 26 17 47
21 47 4 0 13 -21 21 -47z m2449 -398 l0 -65 -610 0 -610 0 0 -104 c0 -100 -1
-105 -32 -152 -44 -65 -150 -154 -438 -370 -131 -98 -239 -182 -239 -186 -1
-5 31 -8 69 -8 l70 0 0 -55 0 -55 -311 0 c-192 0 -308 4 -304 9 7 12 324 236
580 411 364 248 455 332 455 418 0 18 -16 71 -35 118 -19 46 -35 89 -35 94 0
7 252 10 720 10 l720 0 0 -65z m1580 51 c0 -8 -16 -52 -35 -97 -19 -46 -35
-98 -35 -115 0 -79 104 -176 420 -392 325 -222 620 -430 620 -438 0 -2 -139
-4 -310 -4 l-310 0 0 55 0 55 70 0 c39 0 70 3 69 8 0 4 -64 54 -142 112 -384
284 -511 391 -548 462 -15 30 -19 58 -19 139 l0 102 -607 -4 -608 -4 -3 68 -3
67 721 0 c615 0 720 -2 720 -14z m-1590 -516 c0 -279 -3 -362 -12 -365 -7 -3
-411 -4 -898 -3 l-885 3 200 151 c264 200 353 278 393 344 30 50 32 61 32 142
l0 88 585 0 585 0 0 -360z m1330 269 c0 -55 5 -93 17 -117 27 -59 144 -167
357 -327 229 -172 253 -192 246 -198 -3 -2 -407 -2 -897 1 l-893 5 0 358 0
359 585 0 585 0 0 -81z m-3700 -309 l65 -5 -47 -33 c-27 -18 -48 -37 -48 -41
0 -5 7 -28 15 -51 22 -62 20 -64 -29 -30 -25 16 -50 30 -56 30 -6 0 -31 -14
-56 -30 -49 -35 -51 -33 -27 35 18 54 23 44 -53 102 l-29 22 62 0 61 1 13 38
c25 80 31 82 49 22 l16 -55 64 -5z m5024 38 c15 -38 15 -38 73 -38 l58 -1 -23
-19 c-13 -11 -34 -27 -48 -37 -23 -18 -24 -19 -9 -67 8 -27 15 -53 15 -58 0
-4 -22 8 -48 27 l-48 34 -49 -34 c-27 -19 -50 -33 -52 -32 -2 2 4 23 12 47 22
61 20 67 -31 103 l-46 32 63 5 62 5 14 40 c24 72 24 72 34 50 4 -11 15 -37 23
-57z m-3959 -778 l0 -365 -50 -3 c-37 -2 -54 -9 -67 -25 -17 -21 -18 -9 -18
258 0 154 3 331 7 393 l6 113 61 -3 61 -3 0 -365z m425 0 l0 -370 -190 0 -190
0 0 370 0 370 190 0 190 0 0 -370z m480 0 l0 -370 -220 0 -220 0 0 370 0 370
220 0 220 0 0 -370z m407 168 c-4 -112 -7 -276 -7 -365 l0 -163 -180 0 -180 0
0 365 0 365 187 0 186 0 -6 -202z m511 -165 l-3 -368 -173 -3 c-133 -2 -173 0
-176 10 -3 7 -7 174 -11 371 l-6 357 186 0 185 0 -2 -367z m482 -3 l0 -370
-220 0 -220 0 0 370 0 370 220 0 220 0 0 -370z m-2480 -17 l0 -378 -93 -111
c-50 -61 -109 -130 -129 -154 l-38 -44 0 210 c0 115 3 354 7 532 l6 322 124 0
123 0 0 -377z m2905 12 l0 -360 -192 -3 -193 -2 0 365 0 365 193 -2 192 -3 0
-360z m169 319 c3 -26 6 -200 6 -387 l0 -340 -22 21 c-15 13 -39 22 -68 24
l-45 3 -3 350 c-1 192 0 356 3 362 3 9 25 13 63 13 l59 0 7 -46z m301 -336 c3
-211 5 -449 3 -531 l-3 -147 -127 152 -128 152 0 378 0 378 124 0 124 0 7
-382z m-3200 -548 l0 -155 -168 -3 c-128 -2 -168 0 -165 10 2 6 60 78 129 160
l124 148 40 -2 40 -3 0 -155z m425 6 l0 -153 -37 -7 c-21 -3 -107 -6 -190 -6
l-153 0 0 160 0 160 190 0 190 0 0 -154z m417 141 c-3 -8 -56 -78 -118 -155
l-113 -142 -73 0 -73 0 0 155 0 155 191 0 c156 0 190 -2 186 -13z m217 1 c-4
-7 -91 -127 -192 -265 l-185 -253 -89 0 c-48 0 -88 3 -88 6 0 5 176 235 335
437 l69 87 79 0 c60 0 76 -3 71 -12z m236 5 c0 -5 -85 -123 -188 -263 l-188
-255 -93 -3 c-93 -3 -94 -2 -80 18 8 11 97 130 199 264 l185 245 83 1 c45 0
82 -3 82 -7z m542 -258 l198 -260 -87 -3 c-73 -2 -89 0 -104 15 -26 28 -369
497 -369 506 0 4 37 7 83 5 l82 -3 197 -260z m93 178 c143 -182 335 -432 335
-438 0 -3 -40 -5 -89 -5 l-89 0 -184 253 c-102 138 -188 258 -192 265 -5 9 11
12 71 12 l79 0 69 -87z m375 -73 l0 -160 -69 0 -70 0 -116 146 c-64 80 -119
152 -122 160 -4 12 24 14 186 14 l191 0 0 -160z m425 0 l0 -155 -192 -3 -193
-2 0 160 0 160 193 -2 192 -3 0 -155z m249 3 l135 -158 -162 -3 c-88 -1 -167
0 -174 2 -10 4 -13 42 -13 154 0 82 3 152 7 155 3 4 21 7 40 7 30 0 44 -13
167 -157z m-1680 -275 l-7 -385 -181 -267 -181 -267 -3 308 c-2 169 0 354 3
410 l7 102 180 246 c100 135 183 244 185 241 2 -2 1 -177 -3 -388z m365 128
l181 -248 0 -323 c0 -177 3 -356 6 -398 5 -53 4 -77 -4 -77 -6 0 -90 117 -186
259 -163 240 -176 263 -180 312 -10 108 -17 744 -8 734 5 -6 91 -122 191 -259z
m-1239 -236 l0 -190 -190 0 -190 0 0 185 0 184 118 4 c64 1 150 4 190 5 l72 2
0 -190z m-420 -5 l0 -185 -220 0 -220 0 0 185 0 185 220 0 220 0 0 -185z
m2728 6 c2 -119 -1 -178 -9 -187 -9 -11 -51 -14 -195 -14 l-184 0 0 190 0 190
193 -2 192 -3 3 -174z m467 -11 l0 -185 -209 -3 c-161 -2 -211 1 -218 10 -9
16 -11 352 -1 362 4 3 102 5 217 4 l211 -3 0 -185z m-2530 -90 l0 -65 -92 -3
-93 -3 0 71 0 71 93 -3 92 -3 0 -65z m235 0 l0 -70 -100 0 -100 0 0 70 0 70
100 0 100 0 0 -70z m1380 -290 l0 -360 -95 0 -95 0 0 354 c1 194 4 356 7 360
3 3 46 6 95 6 l88 0 0 -360z m-212 291 c2 -30 -2 -59 -7 -64 -7 -7 -7 -15 -1
-22 7 -8 9 -116 8 -286 l-3 -274 -103 -3 -102 -3 0 356 1 356 102 -3 102 -3 3
-54z m-1398 -366 l0 -285 -95 0 -95 0 0 285 0 285 95 0 95 0 0 -285z m228 3
l-3 -283 -97 -3 -98 -3 0 286 0 285 100 0 100 0 -2 -282z m551 -152 c64 -57
69 -179 9 -243 -17 -18 -32 -23 -75 -23 -45 0 -58 4 -77 25 -71 77 -45 232 44
261 41 14 67 8 99 -20z m-1845 -110 c19 -8 52 -30 74 -50 22 -20 45 -36 51
-36 7 0 11 -38 11 -121 l0 -122 -62 7 c-35 4 -108 16 -163 27 -55 11 -143 23
-195 26 -81 4 -104 2 -154 -16 -33 -11 -62 -19 -64 -16 -6 5 -9 2 108 148 94
118 95 118 160 137 116 34 181 38 234 16z m501 -13 c38 -7 80 -20 92 -29 31
-20 245 -288 234 -292 -5 -2 -27 6 -48 16 -94 48 -184 52 -391 18 -81 -14
-163 -26 -182 -28 l-35 -3 -3 121 -3 121 69 45 c93 62 108 64 267 31z m2764
21 c18 -4 53 -26 79 -49 26 -23 55 -44 65 -48 16 -6 17 -19 15 -119 l-3 -113
-61 2 c-33 1 -108 12 -165 23 -167 33 -271 37 -348 11 -35 -12 -65 -20 -67
-19 -4 5 79 115 153 203 47 55 67 72 103 83 100 30 170 38 229 26z m511 -19
c40 -8 84 -22 99 -31 22 -13 219 -247 244 -290 5 -8 -12 -4 -45 10 -100 44
-203 56 -309 36 -30 -6 -99 -17 -154 -25 -55 -8 -112 -18 -127 -21 l-28 -6 0
126 0 126 67 45 c61 40 74 45 125 45 31 0 89 -7 128 -15z m-1959 -195 c29 -16
59 -84 59 -132 0 -25 -10 -63 -22 -88 -23 -44 -24 -45 -72 -45 -41 0 -52 4
-69 27 -25 33 -34 122 -17 172 20 61 74 91 121 66z m2952 -111 c21 -5 53 -24
72 -40 61 -54 63 -74 71 -564 6 -432 6 -441 -15 -495 -55 -147 -213 -221 -437
-207 -80 6 -121 12 -211 32 l-23 5 0 404 c0 375 1 404 18 411 9 4 84 20 166
35 196 39 217 56 123 104 -79 39 -122 87 -122 135 0 117 209 222 358 180z
m-5776 -14 c73 -22 144 -72 171 -123 21 -37 22 -46 12 -77 -13 -40 -53 -76
-121 -111 -59 -30 -65 -57 -16 -73 17 -6 75 -17 127 -26 52 -9 119 -23 149
-31 l54 -15 -7 -402 c-4 -267 -10 -404 -18 -408 -26 -17 -174 -34 -278 -33
-199 2 -304 58 -367 194 -24 54 -25 56 -23 320 1 146 5 355 9 465 6 187 8 203
31 244 47 83 153 113 277 76z m2857 -209 c40 -17 49 -29 41 -55 -13 -43 -149
-60 -201 -26 -80 52 60 123 160 81z m-130 -135 c25 -6 53 -11 63 -11 39 0 95
23 128 51 l34 30 15 -30 c23 -43 20 -129 -4 -168 -27 -45 -94 -91 -144 -98
-135 -21 -262 109 -226 230 19 64 28 69 60 36 16 -16 49 -33 74 -40z m-2048
-87 c322 -154 608 -268 889 -354 466 -143 1023 -218 1414 -191 703 48 1319
226 2053 591 60 30 70 32 92 21 13 -7 29 -10 34 -7 6 4 14 0 19 -8 4 -8 6
-212 3 -452 l-5 -438 -130 -43 c-563 -188 -1101 -323 -1545 -387 -252 -36
-466 -48 -775 -43 -325 5 -483 19 -770 68 -185 32 -434 85 -444 95 -6 6 16 3
182 -27 235 -43 445 -49 623 -19 247 43 519 116 613 165 93 47 202 201 186
262 -3 15 -27 47 -51 70 -35 34 -52 43 -79 43 -62 0 -89 -45 -90 -150 l0 -55
68 4 c230 12 -165 -135 -573 -213 -270 -52 -389 -51 -726 4 -504 84 -851 234
-934 405 -23 48 -29 131 -11 177 21 55 174 107 314 108 93 0 244 -32 379 -81
62 -22 219 -78 348 -123 303 -107 400 -151 400 -181 0 -32 17 -36 160 -42 143
-6 189 3 240 47 34 29 34 30 15 45 -25 20 -61 30 -245 66 -93 19 -211 51 -295
81 -77 27 -201 71 -275 98 -74 26 -196 70 -270 98 -172 63 -244 79 -405 88
-266 14 -431 -49 -475 -181 -32 -98 26 -251 140 -366 74 -75 218 -161 343
-205 43 -15 76 -28 74 -30 -12 -12 -740 216 -752 236 -3 4 -2 200 2 435 7 442
9 464 47 449 8 -3 17 -1 21 5 11 19 29 13 191 -65z"/>
<path d="M5073 8858 c-22 -62 -48 -137 -57 -165 l-18 -53 -184 0 c-101 0 -184
-4 -184 -9 0 -5 65 -53 145 -107 80 -53 145 -101 145 -105 0 -3 -25 -78 -55
-164 -31 -87 -54 -159 -52 -161 2 -2 70 41 151 97 81 55 153 98 159 96 7 -3
75 -48 152 -101 76 -52 141 -93 143 -91 3 2 -21 77 -53 165 -31 89 -53 165
-49 170 5 4 71 49 147 99 75 50 137 96 137 101 0 6 -70 10 -183 10 l-183 0
-53 153 c-28 83 -55 158 -60 165 -5 9 -22 -24 -48 -100z"/>
<path d="M5996 8798 c-20 -28 -20 -37 0 -59 20 -22 8 -46 -43 -88 -36 -30 -36
-31 -13 -31 88 1 153 46 166 115 5 30 2 41 -17 61 -29 31 -72 32 -93 2z"/>
<path d="M4294 8745 c-25 -38 -15 -167 17 -225 46 -83 79 -78 79 13 0 26 4 47
9 47 20 0 82 -87 96 -134 17 -57 19 -119 5 -146 -12 -22 -98 -53 -136 -48 -42
5 -63 43 -79 147 -9 51 -27 117 -41 147 -43 92 -117 131 -159 84 -38 -42 -39
-170 -2 -207 8 -8 30 -18 48 -22 45 -9 61 -41 55 -108 -2 -28 -9 -61 -16 -72
-14 -27 -59 -28 -94 0 -24 19 -26 26 -26 94 0 98 -31 198 -75 242 -57 57 -88
42 -105 -48 -13 -66 0 -136 40 -222 28 -57 28 -62 14 -96 -20 -48 -46 -75
-129 -131 -86 -58 -97 -70 -98 -112 -2 -29 1 -33 26 -36 43 -5 122 39 212 117
l80 70 56 -6 c64 -6 148 16 181 49 18 18 24 19 69 8 97 -23 188 14 247 100 21
31 23 43 19 110 -10 158 -97 328 -201 391 -43 26 -72 24 -92 -6z"/>
<path d="M3680 8717 c-31 -11 -35 -16 -32 -42 4 -37 19 -55 43 -55 72 0 -65
-380 -187 -518 -72 -82 -112 -95 -210 -71 -39 10 -51 20 -85 71 -58 85 -97
127 -140 149 -68 34 -119 22 -119 -30 0 -37 38 -109 70 -133 41 -30 66 -91 52
-123 -24 -52 -44 -32 -93 93 -26 64 -52 134 -59 154 -12 39 -60 88 -87 88 -25
0 -71 -55 -83 -101 -26 -97 9 -212 90 -290 54 -53 63 -86 34 -127 -20 -30 -44
-28 -44 2 0 37 -15 70 -50 110 -25 28 -43 38 -91 47 -32 6 -59 13 -59 15 0 2
12 38 26 80 30 91 27 140 -10 154 -44 16 -99 -11 -117 -58 -21 -55 -31 -161
-19 -214 18 -87 35 -102 129 -108 44 -4 87 -12 95 -19 21 -18 21 -112 1 -151
-30 -58 -136 -91 -204 -64 -107 43 -150 176 -100 310 25 65 19 77 -37 72 -36
-3 -40 -6 -52 -43 -9 -26 -12 -77 -10 -145 2 -86 7 -113 26 -150 30 -57 85
-114 142 -148 52 -31 124 -35 203 -13 56 16 99 63 141 153 15 31 50 83 80 116
53 59 53 59 75 40 33 -26 77 -23 105 7 13 14 35 56 49 93 27 72 27 73 97 47
25 -10 72 -20 106 -22 52 -5 70 -1 123 22 52 24 70 39 105 89 76 107 123 206
149 311 33 132 58 276 60 350 l2 60 -40 2 c-22 1 -56 -3 -75 -10z m-806 -649
c7 -31 -8 -38 -19 -10 -16 38 -23 71 -17 77 7 7 27 -29 36 -67z"/>
<path d="M6452 8623 l-57 -58 -3 37 c-3 40 -16 50 -49 37 -30 -11 -37 -47 -27
-122 9 -60 10 -62 41 -65 26 -3 35 3 59 35 58 79 64 84 88 68 29 -21 52 -19
70 7 22 30 20 81 -2 101 -32 29 -59 20 -120 -40z"/>
<path d="M5988 8519 l-94 -102 -76 -6 c-92 -8 -118 -26 -118 -80 0 -73 7 -81
64 -81 69 0 143 36 216 105 32 31 60 53 63 48 2 -4 15 -41 28 -81 22 -68 29
-80 106 -153 61 -57 106 -90 166 -119 87 -43 218 -84 304 -95 44 -6 62 -16
134 -75 122 -101 176 -105 274 -19 78 68 113 68 220 -2 105 -70 184 -101 271
-107 62 -4 79 -1 132 23 67 30 86 48 125 116 30 53 48 200 28 236 -13 26 -59
43 -88 32 -41 -15 -47 -44 -28 -130 15 -63 16 -81 6 -93 -12 -14 -16 -14 -42
-1 -63 33 -149 8 -149 -44 0 -27 -25 -44 -52 -36 -95 29 -116 68 -53 98 90 43
-3 149 -170 193 -117 32 -152 9 -110 -70 42 -80 29 -109 -40 -86 -48 16 -65
44 -65 107 0 49 -2 55 -32 73 -67 40 -113 20 -147 -63 -23 -56 -59 -87 -103
-87 -82 0 -482 172 -561 242 -46 39 -56 77 -57 215 0 104 -11 143 -38 143 -12
0 -58 -42 -114 -101z m966 -446 c-10 -40 -14 -41 -14 -5 0 18 5 32 10 32 6 0
8 -11 4 -27z m-33 -186 c-8 -8 -11 -2 -11 19 0 40 14 54 18 19 2 -15 -1 -32
-7 -38z"/>
<path d="M6615 8461 c-17 -28 21 -41 160 -56 192 -20 271 -20 279 2 15 39 -39
52 -260 60 -131 4 -173 3 -179 -6z"/>
<path d="M7281 8271 c-8 -5 -11 -16 -8 -25 9 -23 152 -23 161 0 3 9 4 20 0 25
-7 12 -135 12 -153 0z"/>
<path d="M7868 8053 c-8 -10 -18 -42 -21 -71 -7 -60 -40 -139 -87 -207 -38
-55 -52 -100 -44 -137 8 -37 23 -35 66 10 95 100 190 302 174 368 -13 50 -59
70 -88 37z"/>
<path d="M6950 1928 c-1 -2 -3 -57 -6 -124 -7 -134 4 -179 50 -209 41 -27 55
-14 58 57 l3 63 40 -65 c35 -58 39 -71 39 -130 0 -86 -25 -131 -114 -212 -77
-70 -89 -98 -40 -98 71 0 152 68 197 165 32 70 42 178 23 253 -19 78 -75 183
-130 245 -44 48 -57 57 -86 57 -19 0 -34 -1 -34 -2z"/>
<path d="M6573 1848 c-11 -14 -1 -129 17 -196 13 -50 41 -70 64 -46 9 8 16 24
16 35 0 26 16 24 34 -3 25 -41 37 -124 25 -174 -14 -55 -43 -72 -133 -81 l-63
-6 0 46 c0 62 -14 77 -75 77 -58 0 -104 -18 -136 -53 -33 -36 -25 -58 33 -87
28 -14 50 -29 49 -35 -2 -23 -80 -54 -153 -60 -104 -10 -142 -29 -243 -122
-53 -50 -102 -86 -125 -93 -110 -35 -108 -83 3 -84 38 0 169 73 233 130 76 67
134 94 203 94 55 0 63 3 90 32 62 66 86 78 144 72 40 -5 66 -1 117 17 59 21
68 22 92 9 66 -35 78 31 41 217 -27 138 -75 242 -133 293 -36 32 -83 40 -100
18z"/>
<path d="M5664 1475 c-41 -24 -57 -50 -69 -112 -13 -64 -3 -73 82 -73 l76 0
-5 -45 c-6 -50 -43 -106 -89 -134 -17 -10 -62 -23 -101 -30 -88 -15 -132 -34
-147 -67 -15 -34 -14 -50 6 -69 30 -30 166 -2 245 50 56 37 146 163 169 236
34 108 20 232 -29 258 -35 19 -94 12 -138 -14z"/>
<path d="M4057 1341 c-65 -7 -77 -18 -77 -73 0 -49 18 -58 115 -58 75 0 76 0
111 38 36 38 51 73 39 91 -7 12 -91 12 -188 2z"/>
</g>
</svg>
